<?xml version="1.0" encoding="UTF-8"?>
<svg width="147px" height="48px" viewBox="0 0 147 48" version="1.1" xmlns="http://www.w3.org/2000/svg" xmlns:xlink="http://www.w3.org/1999/xlink">
    <!-- Generator: Sketch 44.1 (41455) - http://www.bohemiancoding.com/sketch -->
    <title>DOK-7</title>
    <desc>Created with Sketch.</desc>
    <defs></defs>
    <g id="Page-1" stroke="none" stroke-width="1" fill="none" fill-rule="evenodd">
        <path d="M8.832,38.144 L15.872,38.144 C23.296,38.144 29.504,33.536 29.504,23.68 C29.504,13.824 23.36,9.152 15.936,9.152 L8.832,9.152 L8.832,38.144 Z M16.192,46.336 L0,46.336 L0,0.96 L16.256,0.96 C29.184,0.96 38.656,9.344 38.656,23.68 C38.656,38.016 29.12,46.336 16.192,46.336 Z M57.032,39.552 C61.192,39.552 65.032,36.544 65.032,30.592 C65.032,24.64 61.192,21.632 57.032,21.632 C52.872,21.632 49.032,24.64 49.032,30.592 C49.032,36.48 52.872,39.552 57.032,39.552 Z M57.032,13.888 C66.44,13.888 73.544,20.864 73.544,30.592 C73.544,40.256 66.44,47.296 57.032,47.296 C47.624,47.296 40.52,40.256 40.52,30.592 C40.52,20.864 47.624,13.888 57.032,13.888 Z M105.792,14.848 L93.184,28.096 L106.048,46.336 L95.616,46.336 L87.296,34.304 L83.776,38.016 L83.776,46.336 L75.264,46.336 L75.264,0 L83.776,0 L83.776,26.56 L94.656,14.848 L105.792,14.848 Z M119.016,31.104 L100.456,31.104 L100.456,23.552 L119.016,23.552 L119.016,31.104 Z M146.768,4.8 L146.768,12.16 C143.632,14.848 131.984,25.408 130.128,46.336 L120.976,46.336 C122.704,24 136.592,12.416 136.592,12.416 L115.216,12.416 L115.216,4.8 L146.768,4.8 Z" id="DOK-7" fill="#FFFFFF"></path>
    </g>
</svg>